<svg width="140" height="119" viewBox="0 0 140 119" fill="none" xmlns="http://www.w3.org/2000/svg">
<path fill-rule="evenodd" clip-rule="evenodd" d="M14.9894 0.138184C7.25739 0.138184 0.98938 6.40619 0.98938 14.1382V79.3669C0.98938 87.0989 7.25738 93.3669 14.9894 93.3669H125.299C133.031 93.3669 139.299 87.0989 139.299 79.3669V14.1382C139.299 6.4062 133.031 0.138184 125.299 0.138184H14.9894ZM21.077 93.3669C21.077 93.3669 21.0771 105.639 21.512 111.495C21.7524 114.731 23.7448 117.117 26.4721 118.128C32.93 120.523 38.4501 112.317 40.6223 109.087C40.7352 108.92 40.8391 108.765 40.9336 108.626C45.6561 101.69 50.8371 93.3669 50.8371 93.3669H21.077ZM54.3259 15.241C54.6272 13.134 56.5796 11.6702 58.6866 11.9716C60.7936 12.273 62.2573 14.2253 61.956 16.3323L60.5649 26.0579H84.1053L85.6525 15.241C85.9538 13.134 87.9062 11.6702 90.0132 11.9716C92.1202 12.273 93.5839 14.2253 93.2825 16.3323L91.8914 26.0579H98.9841C101.058 26.0579 102.739 27.7391 102.739 29.813C102.739 31.8868 101.058 33.568 98.9841 33.568H90.8172L87.3697 57.6709H94.4656C96.5394 57.6709 98.2206 59.3521 98.2206 61.4259C98.2206 63.4998 96.5394 65.181 94.4656 65.181H86.2955L84.4242 78.2642C84.1228 80.3712 82.1704 81.8349 80.0635 81.5336C77.9565 81.2322 76.4927 79.2798 76.7941 77.1728L78.5093 65.181H54.9689L53.0976 78.2642C52.7962 80.3712 50.8439 81.8349 48.7369 81.5336C46.6299 81.2322 45.1661 79.2798 45.4675 77.1728L47.1828 65.181H41.3044C39.2305 65.181 37.5493 63.4998 37.5493 61.4259C37.5493 59.3521 39.2305 57.6709 41.3044 57.6709H48.257L51.7045 33.568H45.8205C43.7467 33.568 42.0655 31.8868 42.0655 29.813C42.0655 27.7391 43.7467 26.0579 45.8205 26.0579H52.7787L54.3259 15.241ZM59.4907 33.568L56.0431 57.6709H79.5835L83.0311 33.568H59.4907Z" fill="black"/>
</svg>
