<svg width="30" height="33" viewBox="0 0 30 33" fill="none" xmlns="http://www.w3.org/2000/svg">
<path fill-rule="evenodd" clip-rule="evenodd" d="M10.1303 0.88835C8.89814 0.712113 7.75642 1.56809 7.58019 2.80022L6.94623 7.23245H4.27673C3.05668 7.23245 2.06763 8.2215 2.06763 9.44156C2.06763 10.6616 3.05668 11.6507 4.27673 11.6507H6.31427L4.88709 21.6286H2.22009C1.00004 21.6286 0.0109863 22.6176 0.0109863 23.8377C0.0109863 25.0577 1.00004 26.0468 2.22009 26.0468H4.25514L3.68742 30.0159C3.51119 31.248 4.36716 32.3897 5.5993 32.566C6.83143 32.7422 7.97315 31.8862 8.14938 30.6541L8.80838 26.0468H18.5209L17.9532 30.0159C17.7769 31.248 18.6329 32.3897 19.865 32.566C21.0972 32.7422 22.2389 31.8862 22.4151 30.6541L23.0741 26.0468H25.4308C26.6508 26.0468 27.6399 25.0577 27.6399 23.8377C27.6399 22.6176 26.6508 21.6286 25.4308 21.6286H23.7061L25.1333 11.6507H27.4874C28.7075 11.6507 29.6965 10.6616 29.6965 9.44156C29.6965 8.2215 28.7075 7.23245 27.4874 7.23245H25.7652L26.3079 3.43844C26.4841 2.2063 25.6282 1.06459 24.396 0.88835C23.1639 0.712113 22.0222 1.56809 21.8459 2.80022L21.212 7.23245H11.4995L12.0421 3.43844C12.2184 2.2063 11.3624 1.06459 10.1303 0.88835ZM10.8675 11.6507L9.44034 21.6286H19.1528L20.58 11.6507H10.8675Z" fill="black"/>
</svg>
