<svg width="19" height="19" viewBox="0 0 19 19" fill="none" xmlns="http://www.w3.org/2000/svg">
<path d="M9.10384 17.2184C4.63092 17.2184 0.989258 13.5768 0.989258 9.10384C0.989258 4.63092 4.63092 0.989258 9.10384 0.989258C13.5768 0.989258 17.2184 4.63092 17.2184 9.10384C17.2184 13.5768 13.5768 17.2184 9.10384 17.2184ZM9.10384 2.17676C5.28009 2.17676 2.17676 5.28801 2.17676 9.10384C2.17676 12.9197 5.28009 16.0309 9.10384 16.0309C12.9276 16.0309 16.0309 12.9197 16.0309 9.10384C16.0309 5.28801 12.9276 2.17676 9.10384 2.17676Z" fill="#CDCDCD"/>
<path d="M17.4163 18.0101C17.2659 18.0101 17.1155 17.9546 16.9967 17.8359L15.4134 16.2526C15.1838 16.023 15.1838 15.643 15.4134 15.4134C15.643 15.1838 16.023 15.1838 16.2526 15.4134L17.8359 16.9967C18.0655 17.2263 18.0655 17.6063 17.8359 17.8359C17.7171 17.9546 17.5667 18.0101 17.4163 18.0101Z" fill="#CDCDCD"/>
</svg>
