<svg width="96" height="75" viewBox="0 0 96 75" xmlns="http://www.w3.org/2000/svg">
<path d="M81.3211 6.22373C75.1069 3.31623 68.4623 1.20319 61.5156 0C60.6624 1.54244 59.6657 3.61706 58.9785 5.26741C51.594 4.15687 44.2774 4.15687 37.0286 5.26741C36.3416 3.61706 35.3222 1.54244 34.4614 0C27.5072 1.20319 20.855 3.324 14.6408 6.23912C2.10657 25.1799 -1.29124 43.6503 0.407667 61.8584C8.72101 68.0666 16.7776 71.8379 24.6983 74.3057C26.654 71.6142 28.3981 68.753 29.9007 65.7376C27.039 64.6502 24.2981 63.3083 21.7083 61.7505C22.3954 61.2415 23.0674 60.7093 23.7167 60.1617C39.5128 67.5499 56.6756 67.5499 72.2829 60.1617C72.9399 60.7093 73.6118 61.2415 74.2914 61.7505C71.6939 63.316 68.9455 64.6578 66.0838 65.7454C67.5864 68.753 69.3231 71.6219 71.2862 74.3133C79.2145 71.8455 87.2786 68.0744 95.592 61.8584C97.5854 40.7506 92.1867 22.4498 81.3211 6.22373ZM32.0527 50.6606C27.3109 50.6606 23.4222 46.2338 23.4222 40.8431C23.4222 35.4524 27.2278 31.018 32.0527 31.018C36.8777 31.018 40.7662 35.4446 40.6832 40.8431C40.6907 46.2338 36.8777 50.6606 32.0527 50.6606ZM63.947 50.6606C59.2051 50.6606 55.3165 46.2338 55.3165 40.8431C55.3165 35.4524 59.122 31.018 63.947 31.018C68.7718 31.018 72.6605 35.4446 72.5775 40.8431C72.5775 46.2338 68.7718 50.6606 63.947 50.6606Z"/>
</svg>
