<svg width="20" height="20" viewBox="0 0 20 20" fill="none" xmlns="http://www.w3.org/2000/svg">
<path fill-rule="evenodd" clip-rule="evenodd" d="M16.4483 8.33332H18.3333V11.6667H16.4492C16.2483 12.4425 15.9167 13.165 15.4708 13.8033L16.6667 15L15 16.6667L13.8042 15.47C13.1642 15.9158 12.4433 16.2483 11.6667 16.4483V18.3333H8.33334V16.4483C7.55751 16.2483 6.83584 15.9158 6.19667 15.47L5.00001 16.6667L3.33334 15L4.53 13.8033C4.08417 13.1658 3.75167 12.4433 3.55167 11.6667H1.66667V8.33332H3.55167C3.75167 7.55666 4.08334 6.83499 4.53 6.19666L3.33334 4.99999L5.00001 3.33332L6.19667 4.52999C6.835 4.08332 7.55667 3.75166 8.33334 3.55166V1.66666H11.6667V3.55082C12.4433 3.75166 13.1642 4.08332 13.8042 4.52916L15 3.33249L16.6667 4.99916L15.47 6.19666C15.9158 6.83499 16.2483 7.55749 16.4483 8.33332ZM10 13.3333C11.8409 13.3333 13.3333 11.8409 13.3333 9.99999C13.3333 8.15904 11.8409 6.66666 10 6.66666C8.15905 6.66666 6.66667 8.15904 6.66667 9.99999C6.66667 11.8409 8.15905 13.3333 10 13.3333Z" fill="black"/>
</svg>
