<svg width="24" height="24" viewBox="0 0 24 24" fill="none" xmlns="http://www.w3.org/2000/svg">
<g clip-path="url(#clip0_20_359)">
<path fill-rule="evenodd" clip-rule="evenodd" d="M14.4002 0.795099V6.48245C14.4002 8.20769 15.7926 9.59977 17.5183 9.59977H23.2072C23.9094 9.59977 24.2664 8.75501 23.7666 8.25528L15.7451 0.235883C15.2452 -0.263842 14.4002 0.081206 14.4002 0.795099ZM17.4911 12.0338C14.4403 12.0338 11.9638 9.55729 11.9638 6.50651V0.0699698H2.39276C1.07674 0.0699698 0 1.14671 0 2.46274V21.6049C0 22.9208 1.07674 23.9976 2.39276 23.9976H21.5348C22.8509 23.9976 23.9276 22.9208 23.9276 21.6049V12.0338H17.4911ZM14.3998 14.6641C14.3998 15.9894 13.3255 17.0638 12.0002 17.0638C10.675 17.0638 9.60062 15.9894 9.60062 14.6641H8.0009C8.0009 16.8728 9.79146 18.6635 12.0002 18.6635C14.209 18.6635 15.9995 16.8728 15.9995 14.6641H14.3998ZM5.33471 15.9972C5.33471 16.7335 4.73785 17.3304 4.0016 17.3304C3.26534 17.3304 2.6685 16.7335 2.6685 15.9972C2.6685 15.261 3.26534 14.6641 4.0016 14.6641C4.73785 14.6641 5.33471 15.261 5.33471 15.9972ZM19.9988 17.3304C20.7352 17.3304 21.3319 16.7335 21.3319 15.9972C21.3319 15.261 20.7352 14.6641 19.9988 14.6641C19.2626 14.6641 18.6658 15.261 18.6658 15.9972C18.6658 16.7335 19.2626 17.3304 19.9988 17.3304Z" fill="black"/>
<path fill-rule="evenodd" clip-rule="evenodd" d="M14.4002 0.795099V6.48245C14.4002 8.20769 15.7926 9.59977 17.5183 9.59977H23.2072C23.9094 9.59977 24.2664 8.75501 23.7666 8.25528L15.7451 0.235883C15.2452 -0.263842 14.4002 0.081206 14.4002 0.795099ZM17.4911 12.0338C14.4403 12.0338 11.9638 9.55729 11.9638 6.50651V0.0699698H2.39276C1.07674 0.0699698 0 1.14671 0 2.46274V21.6049C0 22.9208 1.07674 23.9976 2.39276 23.9976H21.5348C22.8509 23.9976 23.9276 22.9208 23.9276 21.6049V12.0338H17.4911ZM14.4 15.6H13.44H10.56H9.6C9.6 16.9255 10.6745 18 12 18C13.3255 18 14.4 16.9255 14.4 15.6ZM21.3319 15.9972C21.3319 16.7335 20.7352 17.3304 19.9988 17.3304C19.2626 17.3304 18.6658 16.7335 18.6658 15.9972C18.6658 15.261 19.2626 14.6641 19.9988 14.6641C20.7352 14.6641 21.3319 15.261 21.3319 15.9972ZM2.4 14.6833L3.04238 13.2L6.7499 15.3402C6.94993 15.4556 6.94993 15.7444 6.7499 15.8598L3.04238 18L2.4 16.5167L3.98807 15.6L2.4 14.6833Z" fill="black"/>
</g>
<defs>
<clipPath id="clip0_20_359">
<rect width="24" height="24" fill="white"/>
</clipPath>
</defs>
</svg>
