<svg width="16" height="16" viewBox="0 0 16 16" fill="none" xmlns="http://www.w3.org/2000/svg">
<g clip-path="url(#clip0_20_367)">
<path d="M1.66667 2.66666V3.66666C1.66667 6.43333 3.14001 8.85333 5.33334 10.2V13.3333H15.3333V12C15.3333 10.2267 11.78 9.33333 10 9.33333C10 9.33333 9.88667 9.33333 9.83334 9.33333C6.66667 9.33333 4.00001 6.66666 4.00001 3.66666V2.66666H1.66667ZM10 2.66666C8.52725 2.66666 7.33334 3.86057 7.33334 5.33333C7.33334 6.80609 8.52725 8 10 8C11.4728 8 12.6667 6.80609 12.6667 5.33333C12.6667 3.86057 11.4728 2.66666 10 2.66666Z" fill="black"/>
</g>
<defs>
<clipPath id="clip0_20_367">
<rect width="16" height="16" fill="white"/>
</clipPath>
</defs>
</svg>
