<svg width="20" height="20" viewBox="0 0 20 20" fill="none" xmlns="http://www.w3.org/2000/svg">
<path d="M10 1.66921C5.405 1.66921 1.66667 5.40671 1.66667 10.0026V16.6693C1.66667 17.5893 2.41251 18.3359 3.33334 18.3359H5.00001C5.92 18.3359 6.66667 17.5893 6.66667 16.6693V14.1693C6.66667 13.2493 5.92 12.5026 5.00001 12.5026H3.33334V10.0026C3.33334 6.32588 6.32417 3.33588 10 3.33588C13.6758 3.33588 16.6667 6.32588 16.6667 10.0026V12.5026H15C14.08 12.5026 13.3333 13.2493 13.3333 14.1693V16.6693C13.3333 17.5893 14.08 18.3359 15 18.3359H16.6667C17.5867 18.3359 18.3333 17.5893 18.3333 16.6693V10.0026C18.3333 5.40671 14.595 1.66921 10 1.66921Z" fill="black"/>
</svg>
