<svg width="20" height="20" viewBox="0 0 20 20" fill="none" xmlns="http://www.w3.org/2000/svg">
<path fill-rule="evenodd" clip-rule="evenodd" d="M12.4917 9.16667C12.4917 10.55 11.3833 11.6667 10 11.6667C8.61667 11.6667 7.50001 10.55 7.50001 9.16667V4.16667C7.50001 2.78333 8.61667 1.66667 10 1.66667C11.3833 1.66667 12.5 2.78333 12.5 4.16667L12.4917 9.16667ZM10 13.4167C12.3 13.4167 14.4167 11.6667 14.4167 9.16667H15.8333C15.8333 12.0167 13.5667 14.3667 10.8333 14.7667V17.5H9.16667V14.7667C6.43334 14.3583 4.16667 12.0083 4.16667 9.16667H5.58334C5.58334 11.6667 7.70001 13.4167 10 13.4167ZM10 3.33333C9.33334 3.33333 9.16667 3.88889 9.16667 4.16667V9.16667C9.16667 9.44442 9.33334 10 10 10C10.6667 10 10.8333 9.44442 10.8333 9.16667V4.16667C10.8333 3.88889 10.6667 3.33333 10 3.33333Z" fill="black"/>
<path fill-rule="evenodd" clip-rule="evenodd" d="M12.4917 9.16667C12.4917 10.55 11.3833 11.6667 10 11.6667C8.61667 11.6667 7.50001 10.55 7.50001 9.16667V4.16667C7.50001 2.78333 8.61667 1.66667 10 1.66667C11.3833 1.66667 12.5 2.78333 12.5 4.16667L12.4917 9.16667ZM10 13.4167C12.3 13.4167 14.4167 11.6667 14.4167 9.16667H15.8333C15.8333 12.0167 13.5667 14.3667 10.8333 14.7667V18.3333H9.16667V14.7667C6.43334 14.3583 4.16667 12.0083 4.16667 9.16667H5.58334C5.58334 11.6667 7.70001 13.4167 10 13.4167Z" fill="black"/>
</svg>
