<svg width="18" height="19" viewBox="0 0 18 19" fill="none" xmlns="http://www.w3.org/2000/svg">
<g clip-path="url(#clip0_1913_3333)">
<path d="M4.07482 16.1925C4.01882 16.1925 3.97642 16.141 3.98621 16.0848L4.49994 13.1361H1.60706C1.55115 13.1361 1.50876 13.0846 1.5184 13.0285L1.7494 11.6837C1.75694 11.6398 1.79433 11.6078 1.83806 11.6078H4.76244L5.55744 7.02308H2.66456C2.60865 7.02308 2.56626 6.97169 2.5759 6.91558L2.8069 5.57072C2.81444 5.52685 2.85183 5.49484 2.89556 5.49484H5.81994L6.33926 2.51403C6.34689 2.47025 6.38424 2.43835 6.42787 2.43835H7.74503C7.80105 2.43835 7.84343 2.4899 7.83368 2.54607L7.31993 5.49484H11.8199L12.3392 2.51403C12.3469 2.47025 12.3842 2.43835 12.4279 2.43835H13.745C13.8011 2.43835 13.8434 2.4899 13.8337 2.54607L13.3199 5.49484H16.2128C16.2687 5.49484 16.3111 5.54623 16.3015 5.60234L16.0705 6.9472C16.0629 6.99107 16.0256 7.02308 15.9818 7.02308H13.0574L12.7871 8.58189H11.2875L11.5578 7.02308H7.05777L6.26277 11.6078H7.91993V13.1361H5.99994L5.48062 16.1169C5.47299 16.1607 5.43564 16.1925 5.39201 16.1925H4.07482Z" />
<path d="M10.0799 10.049C9.68227 10.049 9.35992 10.3774 9.35992 10.7825V15.5975C9.35992 16.0026 9.68227 16.331 10.0799 16.331H10.7999C10.8994 16.331 10.9799 16.4131 10.9799 16.5144V18.072C10.9799 18.2309 11.1649 18.3147 11.2806 18.2081L13.1143 16.5202C13.2466 16.3984 13.4187 16.331 13.597 16.331H16.9199C17.3176 16.331 17.6399 16.0026 17.6399 15.5975V10.7825C17.6399 10.3774 17.3176 10.049 16.9199 10.049H10.0799Z" />
</g>
<defs>
<clipPath id="clip0_1913_3333">
<rect width="18" height="18.3389" transform="translate(0 0.145996)"/>
</clipPath>
</defs>
</svg>
